<svg width="68" height="68" viewBox="0 0 68 68" fill="none" xmlns="http://www.w3.org/2000/svg">
<path d="M44.6241 21.3601C44.4678 20.8793 44.052 20.5291 43.5518 20.4564L37.774 19.6184L35.1888 14.3837C34.9649 13.9305 34.5033 13.6436 33.998 13.6436H33.9977C33.4921 13.6437 33.0306 13.9309 32.8069 14.3843L30.2246 19.6203L24.4473 20.4615C23.947 20.5342 23.5315 20.8849 23.3755 21.3656C23.2194 21.8464 23.3498 22.3742 23.7119 22.727L27.8936 26.801L26.9083 32.5554C26.8229 33.0537 27.028 33.5572 27.437 33.8543C27.6684 34.0223 27.9422 34.1077 28.2174 34.1077C28.4289 34.1077 28.6412 34.0573 28.8357 33.955L34.0025 31.2369L39.1708 33.9522C39.6183 34.1874 40.1605 34.1481 40.5695 33.8508C40.9784 33.5535 41.1831 33.0499 41.0975 32.5517L40.1091 26.7978L44.2888 22.7217C44.6504 22.3686 44.7804 21.8409 44.6241 21.3601ZM37.7545 25.3838C37.4416 25.689 37.2988 26.1286 37.3728 26.5594L38.0238 30.3493L34.6197 28.5608C34.2328 28.3575 33.7705 28.3576 33.3836 28.5611L29.9804 30.3514L30.6295 26.5612C30.7033 26.1303 30.5603 25.6907 30.2472 25.3856L27.4929 22.7023L31.2982 22.1483C31.7307 22.0854 32.1046 21.8135 32.298 21.4216L33.9988 17.9729L35.7016 21.4208C35.8952 21.8127 36.2692 22.0843 36.7018 22.147L40.5073 22.699L37.7545 25.3838Z" fill="#70AD32"/>
<path d="M63.8482 58.3538L52.8704 39.2592C56.1856 35.121 58.1718 29.8745 58.1718 24.172C58.1718 10.8435 47.3282 0 33.9998 0C20.6713 0 9.82775 10.8435 9.82775 24.172C9.82775 29.8745 11.8138 35.121 15.1291 39.2592L4.15131 58.3538C3.89923 58.7923 3.91809 59.3361 4.20005 59.7561C4.48201 60.1761 4.9786 60.3995 5.47944 60.3322L14.0476 59.1816L17.3353 67.1771C17.5279 67.6453 17.9699 67.9633 18.4751 67.9971C18.5048 67.9991 18.5345 68 18.5639 68C19.0361 68 19.4756 67.7486 19.7138 67.3359L30.7962 48.1408C30.7979 48.1379 30.7991 48.1349 30.8008 48.1318C31.8479 48.2709 32.9155 48.3439 34 48.3439C35.0846 48.3439 36.1521 48.2709 37.1992 48.1318C37.201 48.1347 37.2022 48.1378 37.2039 48.1408L48.2862 67.3359C48.5245 67.7486 48.9641 68 49.4361 68C49.4656 68 49.4952 67.9991 49.525 67.9971C50.0302 67.9633 50.4722 67.6453 50.6648 67.1771L53.9526 59.1816L62.5208 60.3322C63.0227 60.3995 63.5182 60.1761 63.8001 59.7561C64.0813 59.3361 64.1003 58.7923 63.8482 58.3538ZM18.7642 63.6679L16.3709 57.8478L18.5186 54.3429C18.9019 53.7175 18.7056 52.8998 18.0802 52.5166C17.4548 52.1335 16.6371 52.3296 16.2539 52.955L14.0836 56.4966L7.79756 57.3407L16.9983 41.3372C20.0121 44.3224 23.8047 46.5222 28.041 47.6001L18.7642 63.6679ZM33.9996 45.6878C22.1358 45.6878 12.4839 36.0358 12.4839 24.172C12.4839 12.3082 22.1358 2.65627 33.9996 2.65627C45.8634 2.65627 55.5154 12.3082 55.5154 24.172C55.5154 36.0358 45.8634 45.6878 33.9996 45.6878ZM53.9158 56.4966L51.7455 52.955C51.3623 52.3296 50.5446 52.1332 49.9192 52.5166C49.2937 52.8999 49.0974 53.7175 49.4807 54.3429L51.6285 57.8478L49.2352 63.6679L39.9584 47.6001C44.1946 46.5222 47.9874 44.3224 51.0011 41.3372L60.2018 57.3407L53.9158 56.4966Z" fill="#C0B0B0"/>
<path d="M33.9997 6.90631C31.0359 6.90631 28.1117 7.67025 25.5432 9.11579C24.904 9.47545 24.6774 10.2853 25.0371 10.9246C25.3967 11.5638 26.2066 11.7907 26.8459 11.4307C29.0175 10.2086 31.4913 9.56258 33.9997 9.56258C42.0554 9.56258 48.6092 16.1164 48.6092 24.172C48.6092 26.3733 48.1323 28.4883 47.1917 30.4584C46.8757 31.1203 47.1561 31.9131 47.818 32.2292C48.0028 32.3173 48.1975 32.359 48.3894 32.359C48.885 32.359 49.3609 32.08 49.5888 31.6028C50.7013 29.2726 51.2655 26.7725 51.2655 24.172C51.2655 14.6517 43.5202 6.90631 33.9997 6.90631Z" fill="#70AD32"/>
<path d="M46.3586 34.3218C45.8322 33.811 44.9914 33.8237 44.4806 34.35L44.4511 34.3803C43.9387 34.905 43.9487 35.746 44.4734 36.2584C44.7317 36.5106 45.0666 36.6362 45.4011 36.6362C45.7463 36.6362 46.0914 36.5025 46.3515 36.2359L46.3866 36.1999C46.8975 35.6736 46.8849 34.8328 46.3586 34.3218Z" fill="#70AD32"/>
<path d="M42.8441 37.4992C42.4902 36.8568 41.6824 36.6229 41.04 36.977C38.8976 38.1576 36.4633 38.7815 34.0002 38.7815C25.9446 38.7815 19.3908 32.2277 19.3908 24.172C19.3908 22.0618 19.8305 20.0265 20.6977 18.1229C21.0018 17.4554 20.7071 16.6678 20.0396 16.3637C19.372 16.0597 18.5845 16.3543 18.2803 17.0218C17.2545 19.2735 16.7344 21.6791 16.7344 24.172C16.7344 33.6924 24.4798 41.4378 34.0001 41.4378C36.9102 41.4378 39.7878 40.6997 42.3219 39.3033C42.9643 38.9493 43.1982 38.1416 42.8441 37.4992Z" fill="#70AD32"/>
<path d="M23.2422 12.3382C22.7055 11.8382 21.865 11.8682 21.3651 12.4048L21.3356 12.4365C20.8376 12.9749 20.8701 13.8153 21.4086 14.3133C21.664 14.5497 21.9874 14.6666 22.3101 14.6666C22.6674 14.6666 23.0236 14.5233 23.2854 14.2404L23.3087 14.2153C23.8086 13.6786 23.7789 12.8381 23.2422 12.3382Z" fill="#70AD32"/>
</svg>
