<svg width="72" height="72" viewBox="0 0 72 72" fill="none" xmlns="http://www.w3.org/2000/svg">
<g clip-path="url(#clip0)">
<path d="M69.7839 24.8325C63.9512 6.20112 44.0532 -4.21087 25.4182 1.61943C6.78554 7.45212 -3.62772 27.3549 2.20385 45.9862L4.4935 45.2691C-0.943476 27.9006 8.76455 9.34591 26.1354 3.90782C34.5503 1.27518 43.4871 2.07632 51.2964 6.16273C59.1092 10.2515 64.8616 17.136 67.4955 25.5498C70.1281 33.9635 69.3281 42.8991 65.2406 50.7108C61.1542 58.5236 54.2697 64.276 45.8548 66.9099C31.7702 71.3177 16.3316 65.7513 8.30162 53.3712L6.28899 54.6762C12.9265 64.9118 24.2871 70.8057 36.064 70.8044C39.5663 70.8044 43.1081 70.2838 46.5708 69.1972C55.5962 66.3726 62.981 60.2017 67.366 51.8227C71.7509 43.4436 72.6085 33.8581 69.7839 24.8325Z" fill="#C0B0B0"/>
<path d="M29.0416 16.7917L29.7301 14.4937L17.7361 10.8955C17.3163 10.7684 16.8569 10.8835 16.5439 11.1966L14.1451 13.5953C13.8657 13.8748 13.7421 14.2741 13.8141 14.6628C13.8861 15.0514 14.1451 15.3789 14.5061 15.5396L25.3007 20.3372L26.2747 18.1447L17.0766 14.0559L17.7339 13.3986L29.0416 16.7917Z" fill="#70AD32"/>
<path d="M40.1835 9.64699C40.1835 8.98493 39.6473 8.4476 38.9841 8.4476C38.9829 8.4476 38.9829 8.4476 38.9818 8.4476C36.3431 8.4476 33.8615 9.47543 31.9952 11.3418L21.8244 21.5115L17.6853 20.4764C17.2763 20.3744 16.8445 20.4931 16.5458 20.7918L14.147 23.1906C13.8856 23.452 13.7585 23.819 13.804 24.1849C13.8496 24.5507 14.0607 24.8769 14.3774 25.0665L20.1177 28.5111L23.5623 34.2514C23.7518 34.5681 24.0768 34.7792 24.4438 34.8247C24.4918 34.8308 24.541 34.8332 24.5902 34.8332C24.9056 34.8332 25.2115 34.7084 25.4395 34.483L27.8382 32.0842C28.1357 31.7855 28.2556 31.3538 28.1537 30.9447L27.1198 26.8104L37.4526 16.5795C39.2156 14.7335 40.1859 12.3085 40.1835 9.64699ZM24.9452 25.5846C24.6441 25.882 24.523 26.3162 24.625 26.7276L25.6601 30.8667L24.8277 31.6991L22.0199 27.0191C21.9179 26.8499 21.7776 26.7084 21.6086 26.6077L16.9286 23.7999L17.7609 22.9675L21.9001 24.0027C22.309 24.1046 22.7409 23.9859 23.0396 23.6872L33.6902 13.0366C34.7937 11.932 36.1825 11.2159 37.689 10.9556C37.4515 12.4381 36.7762 13.8126 35.7399 14.8981L24.9452 25.5846Z" fill="#70AD32"/>
<path d="M37.7319 31.0502L34.1337 18.9004L31.8333 19.5817L35.2143 30.9976L34.4863 31.6406L30.4875 22.3644L28.2842 23.3143L32.9379 34.109C33.0902 34.4616 33.4021 34.7207 33.7774 34.8046C33.865 34.8238 33.9525 34.8335 34.0401 34.8335C34.3292 34.8335 34.6122 34.7291 34.8329 34.5336L37.3757 32.2908C37.7259 31.9821 37.8638 31.4988 37.7319 31.0502Z" fill="#70AD32"/>
<path d="M23.4283 66.1339C14.8862 70.1818 8.18517 70.7047 5.04755 67.5684C-0.390547 62.1303 5.51527 46.3307 18.7842 30.8153L16.9611 29.256C2.40774 46.273 -3.18982 62.7251 3.35049 69.2643C5.17721 71.0898 7.75711 72.0002 10.957 72.0002C14.6871 72.0002 19.2592 70.7637 24.455 68.3012L23.4283 66.1339Z" fill="#70AD32"/>
<path d="M64.0292 41.4634C63.8205 41.0736 63.4139 40.8301 62.9713 40.8301H58.9149L55.6478 34.297C55.4439 33.8904 55.0289 33.6337 54.5743 33.6337H42.5802C41.9169 33.6337 41.3809 34.171 41.3809 34.8331V44.4283C41.3809 45.0916 41.9171 45.6277 42.5802 45.6277H46.1784V58.8211C46.1784 59.4844 46.7145 60.0205 47.3778 60.0205H53.3747C53.6926 60.0205 53.9973 59.8945 54.224 59.6678L59.0215 54.8703C59.2469 54.646 59.3729 54.3414 59.3729 54.0223V49.5881L63.969 42.694C64.2138 42.3269 64.2379 41.8532 64.0292 41.4634ZM57.1746 48.5603C57.0438 48.757 56.973 48.9896 56.973 49.226V53.527L52.8783 57.6217H48.5773H48.5761V44.4283C48.5761 43.765 48.04 43.2289 47.3767 43.2289H43.7785V36.0326H53.8319L57.099 42.5657C57.3029 42.9723 57.7179 43.2291 58.1724 43.2291H60.7296L57.1746 48.5603Z" fill="#C0B0B0"/>
<path d="M64.8655 31.2349L60.4134 23.4436C60.1999 23.0694 59.8017 22.839 59.3723 22.839H52.176C51.7754 22.839 51.4011 23.0393 51.1781 23.3727L49.1355 26.4372H46.1791V20.4403H52.176C52.4951 20.4403 52.7985 20.3143 53.024 20.0888L57.4701 15.6427H62.9705V13.2439H56.9735C56.6545 13.2439 56.351 13.3699 56.1256 13.5953L51.6794 18.0415H44.9797C44.3163 18.0415 43.7803 18.5788 43.7803 19.2409V27.6366C43.7803 28.2987 44.3165 28.836 44.9797 28.836H49.7772C50.1779 28.836 50.5521 28.6357 50.7751 28.3023L52.8177 25.2378H58.6768L63.129 33.0291C63.3424 33.4033 63.7407 33.6337 64.17 33.6337H68.9676V31.2349H64.8655Z" fill="#C0B0B0"/>
<path d="M35.3844 43.2289H28.6846L25.4379 39.9822C25.2136 39.7566 24.9077 39.6307 24.5899 39.6307H18.5929C17.9309 39.6307 17.3936 40.1669 17.3936 40.8301V49.2258C17.3936 49.8892 17.9309 50.4252 18.5929 50.4252H23.3905V62.4193C23.3905 62.8739 23.6471 63.2889 24.0538 63.4927C24.223 63.5766 24.4076 63.6187 24.59 63.6187C24.8443 63.6187 25.0974 63.5384 25.3096 63.3787L30.1072 59.7806C30.4094 59.5539 30.587 59.1977 30.587 58.8211V55.7986L36.1342 51.3621C36.4184 51.1343 36.5839 50.79 36.5839 50.4254V44.4284C36.5838 43.7651 36.0464 43.2289 35.3844 43.2289ZM34.185 49.8497L28.6378 54.2862C28.3536 54.5142 28.1881 54.8583 28.1881 55.2229V58.2215L25.7893 60.0206V49.226C25.7893 48.5627 25.2519 48.0266 24.5899 48.0266H19.7923V42.0297H24.0933L27.3401 45.2764C27.5644 45.5018 27.8702 45.6278 28.1881 45.6278H34.185V49.8497V49.8497Z" fill="#C0B0B0"/>
<path d="M11.2245 25.8197L7.6263 19.8228C7.41044 19.4618 7.01937 19.241 6.59848 19.241H5.39909V21.6398H5.91968L8.68675 26.2514L5.75065 29.1875C5.52509 29.4118 5.39923 29.7177 5.39923 30.0355V33.6337H1.80078V36.0324H6.59834C7.2604 36.0324 7.79772 35.4951 7.79772 34.8331V30.532L11.0445 27.2853C11.4332 26.8955 11.5075 26.2922 11.2245 25.8197Z" fill="#C0B0B0"/>
<path d="M37.7846 1.25V2.7132L33.8949 3.6859C33.7618 3.71951 33.6346 3.7759 33.5207 3.85142L30.5018 5.86404L23.9279 2.57651L22.8545 4.72217L30.0508 8.32033C30.22 8.40428 30.4035 8.44633 30.587 8.44633C30.8198 8.44633 31.0512 8.37799 31.2515 8.24481L34.6769 5.96121L39.2743 4.81217C39.8079 4.67899 40.1834 4.19932 40.1834 3.64878V1.25H37.7846Z" fill="#C0B0B0"/>
</g>
<defs>
<clipPath id="clip0">
<rect width="72" height="72" fill="white"/>
</clipPath>
</defs>
</svg>
