<svg width="73" height="70" viewBox="0 0 73 70" fill="none" xmlns="http://www.w3.org/2000/svg">
<path d="M70.5224 7.46764C70.8205 7.47615 71.0932 7.73836 71.1148 8.03224C73.277 37.4918 67.0676 49.7103 59.6106 55.8101C55.8216 58.9096 51.5855 60.5447 47.5217 61.9946C47.2061 62.1071 46.8899 62.219 46.5738 62.3309C43.0217 63.5876 39.4767 64.8419 36.9442 67.057C34.4118 64.8419 30.867 63.5876 27.315 62.3308C26.9989 62.219 26.6828 62.1071 26.3673 61.9946C22.3036 60.5447 18.0677 58.9096 14.2787 55.8101C6.82188 49.7102 0.612288 37.4918 2.77351 8.03226C2.7948 7.74208 3.06604 7.45635 3.40332 7.43579C7.03621 7.21438 10.0514 6.3705 13.3148 5.45715C14.3523 5.16678 15.4149 4.86939 16.5304 4.58276C21.2085 3.38063 27.1926 2.23914 36.9441 2.23914C46.8841 2.23914 51.6868 3.42434 55.7101 4.64325C56.192 4.78923 56.6658 4.93684 57.1383 5.08402C60.7139 6.19785 64.212 7.28755 70.5224 7.46764Z" stroke="#C0B0B0" stroke-width="2.9"/>
<path d="M60.6262 45.7928C64.1666 39.6188 66.2592 29.7906 65.1 13.4132C65.0266 12.3755 64.1502 11.5811 63.1106 11.5424C52.5932 11.1513 52.7142 7.42126 36.9974 7.42126C31.188 7.42126 27.0344 7.93089 23.7334 8.59314M49.3144 55.5037C50.7416 54.8922 52.1796 54.1752 53.5779 53.2715M41.2611 58.5693C39.948 59.1438 38.7746 59.7899 37.811 60.6202C37.3519 61.0158 36.6432 61.0159 36.184 60.6203C28.1703 53.7147 5.64388 59.5436 8.89215 13.4524C8.96529 12.4146 9.8381 11.5857 10.8753 11.5047C11.3867 11.4647 11.881 11.4088 12.364 11.3396M16.1538 10.5327C17.0703 10.2893 18.003 10.0204 18.9961 9.74575" stroke="#C0B0B0" stroke-width="2.9" stroke-linecap="round"/>
<path d="M24.6797 24.4753H44.4184C46.0753 24.4753 47.4184 25.8184 47.4184 27.4753V42.3191C47.4184 43.976 46.0753 45.3191 44.4184 45.3191H29.7613C28.1045 45.3191 26.7613 43.976 26.7613 42.3191V38.3712" stroke="#70AD32" stroke-width="2.9" stroke-linecap="round"/>
<path d="M35.6563 32.3656L24.2478 24.7608" stroke="#70AD32" stroke-width="2.9" stroke-linecap="round"/>
<path d="M24.3714 24.5498L35.8963 16.4831" stroke="#70AD32" stroke-width="2.9" stroke-linecap="round"/>
</svg>
