<svg width="71" height="71" viewBox="0 0 71 71" fill="none" xmlns="http://www.w3.org/2000/svg">
<g clip-path="url(#clip0)">
<path d="M51.5317 27.4851C51.5317 12.557 36.8361 0.744915 36.211 0.24895C35.7944 -0.0809487 35.2056 -0.0809487 34.7885 0.24895C34.1634 0.744915 19.4678 12.557 19.4678 27.4851C19.4678 41.1821 31.8356 52.2476 34.3546 54.3634V66.4198C34.3546 67.0522 34.8673 67.565 35.4997 67.565C36.1321 67.565 36.6449 67.0522 36.6449 66.4198V54.3634C39.1644 52.2476 51.5317 41.1821 51.5317 27.4851ZM36.6449 51.2809V38.3214L43.1036 32.9463C43.5901 32.5415 43.656 31.8191 43.2512 31.3326C42.8464 30.8462 42.124 30.7802 41.6381 31.185L36.6449 35.3417V31.4484L43.1036 26.0727C43.5901 25.6684 43.656 24.946 43.2512 24.4596C42.8464 23.9731 42.124 23.9071 41.6381 24.312L36.6449 28.4709V23.4324L43.1036 18.0567C43.5901 17.6525 43.656 16.9301 43.2512 16.4436C42.8464 15.9571 42.124 15.8912 41.6381 16.296L36.6449 20.4549V11.4532C36.6449 10.8208 36.1321 10.3081 35.4997 10.3081C34.8673 10.3081 34.3546 10.8208 34.3546 11.4532V20.4549L29.3619 16.2982C28.8755 15.8934 28.153 15.9594 27.7482 16.4458C27.3434 16.9323 27.4099 17.6547 27.8964 18.0595L34.3546 23.4346V28.4731L29.3619 24.3164C28.8755 23.9116 28.153 23.9776 27.7482 24.464C27.3434 24.9505 27.4099 25.6729 27.8964 26.0777L34.3546 31.4506V35.344L29.3619 31.1873C28.8755 30.7824 28.153 30.8484 27.7482 31.3349C27.3434 31.8213 27.4099 32.5438 27.8964 32.9486L34.3546 38.3214V51.2809C30.4612 47.6279 21.7581 38.2655 21.7581 27.4851C21.7581 15.4679 32.5899 5.19015 35.4997 2.64714C38.4095 5.19015 49.2414 15.4679 49.2414 27.4851C49.2414 38.2655 40.5382 47.6279 36.6449 51.2809Z" fill="#70AD32"/>
<path d="M27.485 60.6941H26.3399V52.2851C26.3438 50.7659 25.7399 49.3082 24.6624 48.2374L15.0227 38.5926C13.6824 37.258 11.5146 37.258 10.1743 38.5926L9.1628 39.6075V27.4851C9.16168 26.2125 8.63161 24.998 7.69951 24.1319C6.76796 23.2652 5.51827 22.8252 4.249 22.9158C1.80831 23.1534 -0.040801 25.2262 0.00169442 27.6786V44.0365C0.00113527 45.4612 0.531768 46.8345 1.49071 47.8879L11.4531 58.8467V60.6941H10.3079C9.67554 60.6941 9.1628 61.2069 9.1628 61.8393V69.8553C9.1628 70.4877 9.67554 71.0004 10.3079 71.0004H27.485C28.1174 71.0004 28.6302 70.4877 28.6302 69.8553V61.8393C28.6302 61.2069 28.1174 60.6941 27.485 60.6941V60.6941ZM3.18549 46.3464C2.61013 45.7151 2.29141 44.8909 2.29197 44.0365V27.6786C2.26122 26.4317 3.17599 25.3621 4.41283 25.2005C5.0771 25.1529 5.72962 25.3962 6.20043 25.867C6.63209 26.2947 6.8742 26.8774 6.87253 27.4851V41.4225C6.86973 42.3345 7.23206 43.2095 7.879 43.8526L14.0788 50.0524C14.5284 50.4863 15.2424 50.4802 15.6842 50.0384C16.1259 49.5967 16.132 48.8821 15.6981 48.4331L10.4421 43.1766C10.228 42.9635 10.1078 42.6739 10.1078 42.3719C10.1078 42.0694 10.228 41.7798 10.4421 41.5668L11.7936 40.2164C12.2392 39.7758 12.9572 39.7758 13.4034 40.2164L23.0431 49.8573C23.6856 50.5025 24.0474 51.3748 24.0496 52.2851V60.6941H13.7434V57.9605L3.18549 46.3464ZM26.3399 68.7101H11.4531V62.9844H26.3399V68.7101Z" fill="#C0B0B0"/>
<path d="M66.7513 22.9158C65.4826 22.8252 64.2323 23.2652 63.3008 24.1319C62.3692 24.998 61.8391 26.2125 61.8375 27.4851V39.6075L60.8265 38.596C59.4862 37.2613 57.3184 37.2613 55.9781 38.596L46.3384 48.2374C45.2609 49.3082 44.657 50.7659 44.6604 52.2851V60.6941H43.5153C42.8829 60.6941 42.3701 61.2069 42.3701 61.8393V69.8553C42.3701 70.4877 42.8829 71.0004 43.5153 71.0004H60.6923C61.3247 71.0004 61.8375 70.4877 61.8375 69.8553V61.8393C61.8375 61.2069 61.3247 60.6941 60.6923 60.6941H59.5472V58.8467L69.5101 47.8879C70.4691 46.8345 70.9997 45.4612 70.9986 44.0365V27.6786C71.0411 25.2262 69.1925 23.1534 66.7513 22.9158V22.9158ZM59.5472 68.7101H44.6604V62.9844H59.5472V68.7101ZM68.7083 44.0365C68.7094 44.8909 68.3907 45.7151 67.8153 46.3464L57.2569 57.9605V60.6941H46.9507V52.2851C46.9529 51.3748 47.3147 50.5014 47.9571 49.8562L57.6008 40.2164C58.0464 39.7758 58.7644 39.7758 59.2106 40.2164L60.562 41.5679C61.0032 42.0113 61.0032 42.7276 60.562 43.171L55.3032 48.4298C55.0058 48.7172 54.8861 49.1427 54.9912 49.543C55.0958 49.9434 55.4089 50.2565 55.8093 50.3611C56.2096 50.4656 56.6351 50.3465 56.9225 50.0485L63.1224 43.8492C63.7676 43.2062 64.1294 42.3328 64.1277 41.4225V27.4851C64.1266 26.8774 64.3687 26.2947 64.7998 25.867C65.2712 25.3962 65.9232 25.1535 66.5874 25.2005C67.8243 25.3621 68.7396 26.4317 68.7083 27.6786V44.0365Z" fill="#C0B0B0"/>
<path d="M34.6866 69.0423C34.4769 69.2615 34.3584 69.5517 34.3545 69.8553C34.3567 69.9319 34.364 70.0085 34.3774 70.084C34.3903 70.1561 34.4132 70.2255 34.4462 70.2903C34.4714 70.363 34.506 70.4324 34.5491 70.4967C34.5916 70.5565 34.6374 70.6135 34.6866 70.6683C35.1384 71.1112 35.8614 71.1112 36.3127 70.6683L36.4502 70.4967C36.4933 70.4324 36.5279 70.363 36.5531 70.2903C36.5867 70.2255 36.6096 70.1561 36.6208 70.084C36.6353 70.0085 36.6431 69.9319 36.6448 69.8553C36.6476 69.3901 36.3686 68.969 35.9391 68.7907C35.5092 68.6123 35.0143 68.7118 34.6866 69.0423V69.0423Z" fill="#70AD32"/>
<path d="M13.7428 66.4199H18.3235C18.9559 66.4199 19.4686 65.9071 19.4686 65.2747C19.4686 64.6423 18.9559 64.1296 18.3235 64.1296H13.7428C13.1104 64.1296 12.5977 64.6423 12.5977 65.2747C12.5977 65.9071 13.1104 66.4199 13.7428 66.4199Z" fill="#C0B0B0"/>
<path d="M21.3227 66.3282C21.4603 66.3869 21.6085 66.4176 21.7577 66.4199C22.223 66.4221 22.644 66.1431 22.8224 65.7137C23.0008 65.2842 22.9012 64.7888 22.5708 64.4617C22.2414 64.1363 21.7494 64.0418 21.3227 64.2207C21.1824 64.2761 21.0543 64.3577 20.9447 64.4617C20.735 64.6809 20.6165 64.9711 20.6126 65.2747C20.602 65.7405 20.8866 66.1632 21.3227 66.3282Z" fill="#C0B0B0"/>
<path d="M46.9264 29.5462C46.9152 29.4746 46.8923 29.4047 46.8588 29.3398C46.8336 29.2672 46.7989 29.1978 46.7559 29.1341L46.6183 28.9624C46.1593 28.5386 45.4514 28.5386 44.9923 28.9624C44.9431 29.0167 44.8972 29.0737 44.8547 29.1341C44.8117 29.1978 44.777 29.2672 44.7519 29.3398C44.7189 29.4047 44.6959 29.4746 44.6831 29.5462C44.6702 29.6222 44.663 29.6983 44.6602 29.7754C44.6641 30.0785 44.7826 30.3693 44.9923 30.5885C45.2104 30.7998 45.5017 30.9184 45.8053 30.9206C46.1101 30.9234 46.4031 30.8037 46.6189 30.5885C46.8342 30.3732 46.9538 30.0796 46.9505 29.7754C46.9482 29.6983 46.9404 29.6217 46.9264 29.5462Z" fill="#70AD32"/>
</g>
<defs>
<clipPath id="clip0">
<rect width="71" height="71" fill="white"/>
</clipPath>
</defs>
</svg>
