<svg width="226" height="49" viewBox="0 0 226 49" fill="none" xmlns="http://www.w3.org/2000/svg">
<path d="M14.352 5.224H13.776C10.928 5.224 8.704 5.944 7.104 7.384C5.536 8.792 4.752 11.304 4.752 14.92C4.752 16.104 4.864 16.936 5.088 17.416C5.312 17.864 5.424 18.12 5.424 18.184C3.696 18.184 2.4 17.832 1.536 17.128C0.704 16.392 0.288 15.192 0.288 13.528C0.288 11.256 0.848 9.192 1.968 7.336C3.088 5.448 4.864 3.928 7.296 2.776C9.76 1.624 12.88 1.048 16.656 1.048C18.768 1.048 21.04 1.24 23.472 1.624C25.52 1.976 27.344 2.152 28.944 2.152C30.992 2.152 32.848 1.816 34.512 1.144C34.448 3.224 33.92 4.76 32.928 5.752C31.936 6.744 30.464 7.24 28.512 7.24C27.488 7.24 26.464 7.16 25.44 7C24.416 6.84 22.96 6.568 21.072 6.184L14.448 37H7.536L14.352 5.224ZM30.1174 37.192C27.7494 37.192 25.8774 36.584 24.5014 35.368C23.1254 34.152 22.4374 32.232 22.4374 29.608C22.4374 27.432 22.8854 25.016 23.7814 22.36C24.6774 19.704 26.1174 17.416 28.1014 15.496C30.0854 13.544 32.5814 12.568 35.5894 12.568C39.6854 12.568 41.7334 15.128 41.7334 20.248V20.296C41.8294 20.328 42.0054 20.344 42.2614 20.344C43.3174 20.344 44.5334 20.072 45.9094 19.528C47.2854 18.952 48.5334 18.264 49.6534 17.464L50.0854 18.76C49.1574 19.752 47.9414 20.6 46.4374 21.304C44.9654 21.976 43.3494 22.456 41.5894 22.744C41.3334 25.656 40.6774 28.2 39.6214 30.376C38.5654 32.552 37.2054 34.232 35.5414 35.416C33.8774 36.6 32.0694 37.192 30.1174 37.192ZM32.0374 32.872C32.8054 32.872 33.5734 32.44 34.3414 31.576C35.1094 30.68 35.7814 29.48 36.3574 27.976C36.9334 26.44 37.3494 24.744 37.6054 22.888C36.7414 22.696 36.3094 22.024 36.3094 20.872C36.3094 19.56 36.8054 18.696 37.7974 18.28C37.7334 17.224 37.5734 16.504 37.3174 16.12C37.0614 15.704 36.6134 15.496 35.9734 15.496C34.9174 15.496 33.8934 16.264 32.9014 17.8C31.9094 19.336 31.1094 21.176 30.5014 23.32C29.8934 25.464 29.5894 27.352 29.5894 28.984C29.5894 30.52 29.7654 31.56 30.1174 32.104C30.4694 32.616 31.1094 32.872 32.0374 32.872ZM47.8511 11.224H54.7631L53.9951 14.824C55.5951 13.448 57.4671 12.76 59.6111 12.76C61.4031 12.76 62.8271 13.352 63.8831 14.536C64.9391 15.72 65.4671 17.656 65.4671 20.344C65.4671 22.872 65.0991 25.432 64.3631 28.024C63.6271 30.584 62.3791 32.776 60.6191 34.6C58.8591 36.392 56.5391 37.288 53.6591 37.288C51.6111 37.288 50.2511 36.712 49.5791 35.56L47.0831 47.272L39.8351 49L47.8511 11.224ZM52.1711 33.112C53.7071 33.112 54.9711 32.392 55.9631 30.952C56.9871 29.512 57.7231 27.8 58.1711 25.816C58.6511 23.8 58.8911 21.928 58.8911 20.2C58.8911 17.544 58.0911 16.216 56.4911 16.216C55.9151 16.216 55.3231 16.424 54.7151 16.84C54.1391 17.256 53.6271 17.832 53.1791 18.568L50.3471 32.008C50.6031 32.744 51.2111 33.112 52.1711 33.112ZM73.0883 37.288C70.7203 37.288 68.8803 36.84 67.5683 35.944C66.2882 35.048 65.6482 33.688 65.6482 31.864C65.6482 30.68 65.9202 29.656 66.4642 28.792C66.9763 27.896 67.6003 27.16 68.3363 26.584C69.0723 25.976 70.0483 25.288 71.2643 24.52C72.8003 23.592 73.9363 22.76 74.6723 22.024C75.4403 21.256 75.8243 20.312 75.8243 19.192C75.8243 18.488 75.6323 17.944 75.2483 17.56C74.8963 17.144 74.3523 16.936 73.6163 16.936C72.5603 16.936 71.6163 17.336 70.7843 18.136C69.9523 18.936 69.1683 20.2 68.4323 21.928H66.1282C67.1843 18.92 68.5283 16.616 70.1603 15.016C71.7923 13.384 73.9363 12.568 76.5923 12.568C78.4483 12.568 79.9843 13.016 81.2003 13.912C82.4483 14.808 83.0723 16.168 83.0723 17.992C83.0723 19.368 82.7843 20.568 82.2083 21.592C81.6323 22.616 80.9283 23.464 80.0963 24.136C79.2643 24.776 78.2243 25.48 76.9763 26.248C75.5683 27.112 74.5443 27.864 73.9043 28.504C73.2643 29.112 72.9443 29.848 72.9443 30.712C72.9443 32.408 74.0803 33.256 76.3523 33.256C77.7923 33.256 79.1523 32.888 80.4323 32.152C81.7443 31.416 83.1523 30.168 84.6563 28.408H86.2883C84.5603 31.16 82.6243 33.336 80.4803 34.936C78.3683 36.504 75.9043 37.288 73.0883 37.288ZM89.4083 37.288C87.8723 37.288 86.6243 36.808 85.6643 35.848C84.7363 34.888 84.2722 33.448 84.2722 31.528C84.2722 30.728 84.4002 29.688 84.6562 28.408L87.9203 13H94.8323L91.3763 29.32C91.2803 29.8 91.2323 30.248 91.2323 30.664C91.2323 31.976 91.7123 32.632 92.6723 32.632C93.5683 32.632 94.3363 32.264 94.9763 31.528C95.6163 30.76 96.1283 29.72 96.5123 28.408L99.7763 13H106.688L103.232 29.32C103.104 29.8 103.04 30.312 103.04 30.856C103.04 31.496 103.184 31.96 103.472 32.248C103.792 32.504 104.304 32.632 105.008 32.632C105.904 32.632 106.672 32.248 107.312 31.48C107.984 30.712 108.512 29.688 108.896 28.408H110.912C109.728 31.864 108.256 34.216 106.496 35.464C104.768 36.68 103.024 37.288 101.264 37.288C99.8883 37.288 98.7843 36.904 97.9523 36.136C97.1523 35.368 96.6723 34.232 96.5123 32.728C95.4243 34.488 94.2723 35.688 93.0563 36.328C91.8723 36.968 90.6563 37.288 89.4083 37.288ZM126.315 37.288C124.491 37.288 123.083 36.808 122.091 35.848C121.131 34.856 120.651 33.64 120.651 32.2C120.651 31.272 121.019 29.032 121.755 25.48H116.427L113.979 37H107.067L112.155 13H119.067L117.003 22.6H122.379L124.539 13H130.971L128.427 24.904C128.107 26.28 127.835 27.48 127.611 28.504C127.387 29.528 127.275 30.232 127.275 30.616C127.275 31.96 127.915 32.632 129.195 32.632C130.091 32.632 130.811 32.328 131.355 31.72C131.899 31.112 132.523 30.008 133.227 28.408H135.243C133.227 34.328 130.251 37.288 126.315 37.288ZM140.515 37.192C137.859 37.192 135.859 36.408 134.515 34.84C133.203 33.272 132.547 31.176 132.547 28.552C132.547 25.992 133.235 22.472 134.611 17.992C135.987 13.48 137.811 9.512 140.083 6.088C142.355 2.664 144.803 0.951998 147.427 0.951998C150.947 0.951998 152.707 3.144 152.707 7.528C152.707 10.632 151.395 14.472 148.771 19.048C149.443 19.368 150.051 19.848 150.595 20.488C152.003 20.488 153.523 20.184 155.155 19.576C156.819 18.968 158.227 18.264 159.379 17.464L159.811 18.76C158.947 19.688 157.795 20.504 156.355 21.208C154.947 21.88 153.395 22.36 151.699 22.648C151.859 23.256 151.939 24.056 151.939 25.048C151.939 27.192 151.475 29.192 150.547 31.048C149.619 32.904 148.291 34.392 146.563 35.512C144.835 36.632 142.819 37.192 140.515 37.192ZM142.627 32.872C143.619 32.872 144.483 32.536 145.219 31.864C145.987 31.192 146.563 30.344 146.947 29.32C147.363 28.296 147.571 27.24 147.571 26.152C147.571 24.968 147.427 24.088 147.139 23.512C146.915 23.608 146.675 23.688 146.419 23.752C146.163 23.784 145.827 23.8 145.411 23.8C144.643 23.8 144.035 23.592 143.587 23.176C143.139 22.76 142.915 22.184 142.915 21.448C142.915 20.488 143.203 19.784 143.779 19.336C144.387 18.888 145.219 18.632 146.275 18.568C147.203 16.872 147.987 15 148.627 12.952C149.299 10.872 149.635 9 149.635 7.336C149.635 6.376 149.507 5.704 149.251 5.32C149.027 4.904 148.627 4.696 148.051 4.696C146.803 4.696 145.523 6.248 144.211 9.352C142.931 12.456 141.859 15.992 140.995 19.96C140.131 23.928 139.699 26.84 139.699 28.696C139.699 31.48 140.675 32.872 142.627 32.872ZM161.645 37.288C159.277 37.288 157.437 36.68 156.125 35.464C154.813 34.216 154.157 32.28 154.157 29.656C154.157 27.448 154.589 25.016 155.453 22.36C156.317 19.704 157.725 17.416 159.677 15.496C161.629 13.544 164.109 12.568 167.117 12.568C170.637 12.568 172.397 14.104 172.397 17.176C172.397 18.968 171.885 20.616 170.861 22.12C169.837 23.624 168.477 24.84 166.781 25.768C165.085 26.664 163.277 27.176 161.357 27.304C161.293 28.264 161.261 28.904 161.261 29.224C161.261 30.792 161.533 31.864 162.077 32.44C162.621 32.984 163.501 33.256 164.717 33.256C166.445 33.256 167.917 32.856 169.133 32.056C170.381 31.256 171.741 30.04 173.213 28.408H174.845C171.293 34.328 166.893 37.288 161.645 37.288ZM161.741 25C162.925 24.936 164.045 24.52 165.101 23.752C166.189 22.984 167.053 22.008 167.693 20.824C168.365 19.64 168.701 18.392 168.701 17.08C168.701 15.768 168.301 15.112 167.501 15.112C166.349 15.112 165.213 16.12 164.093 18.136C163.005 20.152 162.221 22.44 161.741 25ZM180.067 37.288C177.699 37.288 175.859 36.68 174.547 35.464C173.235 34.216 172.579 32.28 172.579 29.656C172.579 27.448 173.011 25.016 173.875 22.36C174.771 19.704 176.179 17.416 178.099 15.496C180.051 13.544 182.515 12.568 185.491 12.568C187.411 12.568 188.771 12.984 189.571 13.816C190.403 14.648 190.819 15.704 190.819 16.984C190.819 18.104 190.579 18.968 190.099 19.576C189.619 20.184 189.011 20.488 188.275 20.488C187.731 20.488 187.171 20.296 186.595 19.912C186.979 18.856 187.171 17.912 187.171 17.08C187.171 16.472 187.059 15.992 186.835 15.64C186.611 15.288 186.275 15.112 185.827 15.112C184.867 15.112 183.907 15.896 182.947 17.464C181.987 19.032 181.203 20.936 180.595 23.176C179.987 25.416 179.683 27.432 179.683 29.224C179.683 30.792 179.955 31.864 180.499 32.44C181.043 32.984 181.923 33.256 183.139 33.256C184.867 33.256 186.339 32.856 187.555 32.056C188.803 31.256 190.163 30.04 191.635 28.408H193.267C189.715 34.328 185.315 37.288 180.067 37.288ZM219.993 37.288C218.297 37.288 217.065 36.776 216.297 35.752C215.529 34.728 215.145 33.432 215.145 31.864C215.145 31.192 215.225 30.44 215.385 29.608C215.545 28.744 215.705 27.912 215.865 27.112C216.057 26.312 216.185 25.8 216.249 25.576C216.505 24.456 216.745 23.352 216.969 22.264C217.193 21.176 217.305 20.296 217.305 19.624C217.305 17.992 216.729 17.176 215.577 17.176C214.745 17.176 214.009 17.592 213.369 18.424C212.729 19.224 212.217 20.28 211.833 21.592L208.569 37H201.657L205.161 20.44C205.257 20.056 205.305 19.656 205.305 19.24C205.305 17.832 204.825 17.128 203.865 17.128C202.969 17.128 202.185 17.544 201.513 18.376C200.873 19.176 200.361 20.248 199.977 21.592L196.713 37H189.801L194.889 13H201.801L201.273 15.496C202.905 13.672 204.857 12.76 207.129 12.76C209.945 12.76 211.593 14.136 212.073 16.888C213.833 14.168 216.057 12.808 218.745 12.808C220.377 12.808 221.673 13.256 222.633 14.152C223.593 15.048 224.073 16.408 224.073 18.232C224.073 19.16 223.961 20.2 223.737 21.352C223.513 22.472 223.193 23.848 222.777 25.48C222.521 26.472 222.281 27.448 222.057 28.408C221.865 29.336 221.769 30.072 221.769 30.616C221.769 31.256 221.913 31.752 222.201 32.104C222.489 32.456 222.985 32.632 223.689 32.632C224.457 32.632 224.985 32.536 225.273 32.344C225.081 33.976 224.489 35.208 223.497 36.04C222.537 36.872 221.369 37.288 219.993 37.288Z" fill="#474747"/>
</svg>
